<?xml version="1.0" standalone="no"?>
<!DOCTYPE svg PUBLIC "-//W3C//DTD SVG 20010904//EN"
 "http://www.w3.org/TR/2001/REC-SVG-20010904/DTD/svg10.dtd">
<svg version="1.0" xmlns="http://www.w3.org/2000/svg"
 width="388.000000pt" height="323.000000pt" viewBox="0 0 388.000000 323.000000"
 preserveAspectRatio="xMidYMid meet">

<g transform="translate(0.000000,323.000000) scale(0.100000,-0.100000)"
fill="#042c84" stroke="none">
<path d="M1920 2975 c-5 -14 -10 -64 -10 -111 0 -67 3 -86 15 -91 21 -7 24 -4
27 41 1 20 5 39 9 42 4 2 22 -16 40 -41 22 -31 40 -45 56 -45 13 0 23 3 23 6
0 3 -16 26 -35 51 -19 25 -35 51 -35 57 0 7 18 29 40 51 21 21 37 42 34 47
-12 19 -44 6 -78 -32 -20 -22 -38 -40 -40 -40 -3 0 -6 19 -8 42 -4 49 -24 61
-38 23z"/>
<path d="M1696 2964 c-19 -18 -21 -78 -3 -91 6 -6 33 -16 60 -23 26 -7 47 -18
47 -26 0 -22 -39 -36 -77 -29 -31 5 -35 4 -29 -10 3 -9 6 -19 6 -21 0 -2 24
-4 53 -4 63 0 87 19 87 68 0 37 -25 57 -82 67 -27 5 -38 12 -38 25 0 21 32 31
73 23 26 -5 29 -4 24 11 -4 10 -7 20 -7 22 0 12 -100 2 -114 -12z"/>
<path d="M2177 2923 c-18 -61 -40 -164 -35 -168 9 -8 132 -34 139 -29 22 13 5
31 -42 43 -42 11 -50 16 -47 35 3 19 8 21 56 18 47 -2 53 0 50 15 -2 12 -17
20 -46 26 -38 7 -42 11 -36 30 9 30 8 30 51 18 53 -15 63 -14 63 7 0 14 -12
22 -47 30 -27 6 -58 14 -70 18 -19 5 -23 0 -36 -43z"/>
<path d="M1540 2921 c0 -10 9 -47 20 -81 11 -34 20 -68 20 -74 0 -7 6 -21 14
-31 20 -27 49 -4 36 28 -5 12 -19 57 -32 100 -17 58 -27 77 -40 77 -11 0 -18
-7 -18 -19z"/>
<path d="M1363 2864 c-40 -19 -73 -39 -73 -45 0 -16 27 -21 50 -9 28 15 37 5
70 -70 33 -75 38 -82 60 -70 17 9 16 14 -16 80 -41 84 -42 98 -9 110 28 11 34
40 8 39 -10 0 -51 -16 -90 -35z"/>
<path d="M2498 2773 c-21 -36 -38 -79 -38 -95 0 -55 75 -103 125 -80 22 10 94
106 108 144 5 14 -10 28 -29 28 -2 0 -22 -29 -45 -65 -35 -55 -45 -65 -70 -65
-32 0 -53 28 -42 57 4 10 22 42 41 72 27 42 31 55 21 62 -25 16 -34 9 -71 -58z"/>
<path d="M1211 2776 c-6 -8 -14 -37 -18 -65 -3 -28 -9 -51 -12 -51 -3 0 -15
14 -26 30 -23 34 -28 36 -44 16 -10 -12 0 -31 50 -100 35 -47 66 -86 70 -86 3
0 12 6 18 13 8 10 5 22 -15 48 -13 18 -21 35 -17 36 5 2 32 -3 61 -11 43 -11
55 -11 70 0 15 12 15 15 2 23 -8 6 -33 13 -55 17 -59 9 -64 16 -58 84 6 60 -2
75 -26 46z"/>
<path d="M2701 2606 c-67 -67 -81 -96 -48 -96 6 0 30 19 54 42 23 23 45 39 49
36 3 -4 0 -40 -7 -82 -11 -66 -11 -78 2 -92 14 -13 23 -7 85 62 79 88 82 92
59 100 -11 5 -31 -7 -61 -37 l-45 -44 8 55 c12 87 10 124 -7 128 -8 1 -48 -31
-89 -72z"/>
<path d="M965 2569 c-64 -57 -64 -59 25 -139 68 -61 83 -70 96 -60 13 12 11
17 -17 46 -28 29 -30 34 -15 40 9 3 35 4 58 0 38 -6 68 4 68 24 0 4 -20 11
-45 14 -40 7 -44 10 -39 30 7 29 -36 76 -70 76 -14 0 -41 -14 -61 -31z m85
-44 c0 -7 -9 -23 -19 -36 l-20 -24 -23 23 -23 23 29 25 c22 19 31 22 42 13 8
-6 14 -17 14 -24z"/>
<path d="M2888 2412 c-77 -57 -92 -77 -63 -88 20 -8 175 106 172 126 -4 28
-32 18 -109 -38z"/>
<path d="M3027 2350 c-8 -11 -32 -40 -53 -63 -70 -77 -75 -84 -68 -102 6 -15
16 -17 88 -11 115 10 146 16 146 32 0 22 -16 25 -91 14 -39 -6 -74 -8 -76 -6
-3 2 19 30 47 61 48 54 59 84 33 92 -6 2 -18 -5 -26 -17z"/>
<path d="M800 2346 c-19 -19 -10 -36 57 -119 37 -45 68 -84 70 -86 2 -3 9 1
16 8 9 9 8 18 -6 43 -17 29 -17 31 4 65 19 30 25 33 50 28 22 -5 31 -2 35 10
10 25 20 22 -168 54 -30 5 -51 4 -58 -3z m112 -53 c4 -2 2 -13 -4 -23 -12 -19
-13 -19 -35 2 -13 12 -23 25 -23 30 0 8 44 1 62 -9z"/>
<path d="M1350 2245 l-34 -35 71 0 c40 0 74 -4 77 -8 3 -5 -2 -18 -10 -30 -13
-20 -24 -22 -99 -22 -75 0 -85 -2 -99 -22 -9 -12 -16 -26 -16 -30 0 -5 103 -8
228 -8 l228 0 47 -54 46 -54 -177 -4 c-154 -3 -183 -7 -225 -25 -75 -34 -187
-149 -187 -193 0 -6 34 -10 90 -10 84 0 93 -2 114 -25 l23 -25 441 0 441 0 21
30 21 30 195 0 195 0 -3 38 -3 37 -107 3 c-107 3 -108 3 -108 27 0 25 0 25
100 25 62 0 100 4 100 10 0 6 -7 26 -14 45 l-15 35 -226 0 c-207 0 -229 2
-253 19 -15 10 -101 78 -191 150 l-164 131 -237 0 -236 0 -34 -35z m224 -341
c3 -9 6 -42 6 -74 0 -66 -5 -70 -76 -70 -32 0 -49 6 -61 20 -14 16 -30 20 -80
20 -35 0 -63 4 -63 9 0 16 85 80 126 95 55 21 140 21 148 0z m137 5 c45 -23
39 -94 -8 -105 -32 -8 -73 20 -73 51 0 23 34 65 53 65 4 0 17 -5 28 -11z"/>
<path d="M2201 2222 c-52 -32 -96 -62 -97 -67 -3 -10 149 -135 163 -135 4 0
34 16 66 35 58 35 59 35 178 35 65 0 119 3 119 8 0 4 -7 18 -16 30 -14 20 -24
22 -99 22 -75 0 -85 2 -99 22 -21 30 -7 38 73 38 l65 0 -34 35 -34 35 -95 0
-96 0 -94 -58z"/>
<path d="M3068 2082 c-48 -15 -89 -29 -92 -32 -6 -7 22 -122 33 -133 4 -4 15
-5 23 -2 13 5 14 11 1 47 -16 47 -12 68 15 68 18 0 42 -37 42 -65 0 -9 9 -15
21 -15 18 0 20 4 15 25 -3 14 -9 36 -12 49 -4 16 0 25 11 30 25 9 34 0 46 -50
10 -40 30 -57 43 -36 9 14 -31 137 -45 139 -8 1 -53 -10 -101 -25z"/>
<path d="M657 1995 c-9 -20 -17 -44 -17 -53 0 -27 37 -62 66 -62 24 0 38 12
82 69 36 46 57 -2 27 -60 -14 -27 -14 -30 1 -36 21 -8 41 18 50 66 9 47 -12
85 -51 89 -25 3 -37 -4 -72 -45 -34 -39 -44 -46 -55 -35 -12 12 -11 17 17 85
5 13 2 17 -12 17 -12 0 -25 -13 -36 -35z"/>
<path d="M3118 1851 c-92 -7 -104 -11 -95 -36 4 -10 20 -15 47 -15 22 0 40 -4
40 -10 0 -5 -18 -24 -40 -41 -26 -21 -40 -40 -40 -56 0 -29 5 -29 42 2 29 25
58 33 58 17 0 -5 11 -14 25 -20 21 -10 32 -9 54 3 34 17 44 49 35 115 -5 38
-11 50 -23 48 -9 0 -55 -4 -103 -7z m90 -78 c-2 -31 -7 -39 -25 -41 -17 -3
-26 4 -33 24 -15 38 -6 54 30 54 30 0 31 -2 28 -37z"/>
<path d="M618 1733 c-2 -38 -1 -71 2 -75 3 -4 52 -8 110 -9 l105 -2 3 72 c3
65 1 71 -17 71 -17 0 -20 -8 -23 -47 -3 -44 -5 -48 -28 -48 -23 0 -25 4 -25
45 0 34 -4 45 -17 48 -15 3 -18 -4 -18 -42 0 -42 -2 -46 -25 -46 -23 0 -25 3
-25 50 0 43 -3 50 -19 50 -17 0 -20 -9 -23 -67z"/>
<path d="M1125 1630 c-4 -6 -4 -24 0 -40 l7 -30 98 0 c87 0 101 -2 109 -19 6
-10 7 -21 4 -25 -3 -3 -48 -6 -99 -6 -51 0 -95 -4 -98 -8 -3 -5 -2 -18 1 -30
5 -21 10 -22 165 -22 l159 0 55 -35 c30 -19 56 -35 58 -35 6 0 199 119 208
128 8 8 -47 48 -153 111 -34 20 -49 21 -272 21 -150 0 -238 -4 -242 -10z"/>
<path d="M2092 1633 c-7 -3 -117 -70 -244 -149 l-231 -144 -203 0 c-112 0
-205 -4 -208 -8 -3 -5 3 -24 12 -43 l17 -34 96 -3 c86 -2 97 -5 102 -22 6 -25
-16 -32 -91 -29 -63 2 -68 -7 -30 -48 20 -21 31 -23 124 -23 97 0 102 -1 118
-25 l16 -25 390 0 c376 0 390 1 400 20 9 16 23 20 93 22 75 3 82 5 85 24 5 32
-88 128 -155 159 -45 22 -75 28 -166 32 l-111 6 58 54 59 53 248 0 c238 0 248
1 254 20 11 34 -3 40 -101 40 -93 0 -95 1 -92 23 3 21 8 22 105 25 l102 3 6
29 c4 16 4 34 0 40 -6 10 -627 14 -653 3z m26 -369 c32 -22 27 -73 -9 -93 -24
-13 -29 -13 -53 2 -34 22 -36 69 -4 91 28 20 38 20 66 0z m226 2 c35 -15 106
-73 106 -87 0 -5 -27 -9 -59 -9 -43 0 -60 -4 -65 -15 -4 -11 -21 -15 -66 -15
l-60 0 0 70 0 70 55 0 c31 0 70 -6 89 -14z"/>
<path d="M3030 1584 c-16 -42 -12 -92 10 -114 36 -36 79 -21 110 40 34 67 79
42 47 -26 -17 -34 -16 -34 7 -34 28 0 36 16 36 76 0 36 -5 47 -25 60 -35 23
-67 8 -97 -45 -14 -25 -30 -41 -42 -41 -15 0 -17 6 -14 38 3 20 8 45 12 55 6
13 3 17 -13 17 -14 0 -25 -9 -31 -26z"/>
<path d="M755 1571 c-30 -6 -31 -9 -27 -61 3 -28 31 -25 42 5 17 44 56 9 44
-39 -5 -23 -51 -56 -77 -56 -8 0 -26 9 -41 21 -20 16 -26 29 -26 60 0 32 -3
39 -20 39 -17 0 -20 -7 -20 -46 0 -39 5 -51 35 -81 33 -33 39 -35 86 -31 69 7
101 38 101 101 1 51 -23 98 -50 96 -9 -1 -30 -4 -47 -8z"/>
<path d="M2990 1377 c0 -20 11 -25 102 -49 56 -15 103 -26 104 -25 1 1 4 11 6
21 2 14 -5 22 -27 28 -35 11 -176 48 -181 48 -2 0 -4 -10 -4 -23z"/>
<path d="M849 1318 c-12 -18 -24 -34 -25 -36 -1 -2 -13 4 -27 12 -37 25 -97
-5 -97 -48 0 -30 18 -89 33 -110 12 -16 18 -15 102 19 102 41 108 45 99 68 -5
15 -9 15 -42 2 -48 -21 -58 -3 -26 44 24 36 32 81 15 81 -5 0 -20 -15 -32 -32z
m-53 -75 c21 -29 17 -52 -12 -59 -29 -7 -44 7 -44 42 0 38 33 47 56 17z"/>
<path d="M2937 1233 c-18 -17 -1 -33 73 -66 44 -20 80 -38 80 -40 0 -3 -7 -17
-15 -33 -14 -27 -8 -43 16 -44 7 0 79 154 79 169 0 24 -36 10 -47 -19 l-11
-30 -77 35 c-82 37 -88 39 -98 28z"/>
<path d="M894 1105 c-77 -34 -99 -122 -45 -176 96 -96 255 51 164 151 -33 36
-76 45 -119 25z m90 -51 c25 -25 19 -59 -15 -88 -35 -30 -65 -33 -91 -9 -20
18 -23 45 -7 74 19 37 86 51 113 23z"/>
<path d="M2829 1044 c-36 -50 -39 -58 -26 -71 13 -13 18 -10 43 26 33 46 33
46 59 28 17 -13 17 -15 -8 -52 -14 -21 -24 -42 -21 -47 10 -17 30 -7 53 27 19
29 26 33 42 24 24 -13 24 -16 -8 -61 -21 -31 -24 -41 -14 -51 10 -9 18 -4 41
23 16 19 36 47 44 61 l15 26 -77 55 c-42 30 -82 58 -89 62 -7 4 -28 -15 -54
-50z"/>
<path d="M1039 869 c-68 -76 -77 -93 -59 -104 7 -4 31 11 57 36 l45 44 -7 -78
c-5 -57 -3 -82 6 -93 11 -13 23 -5 86 58 40 40 73 78 73 85 0 29 -25 21 -71
-22 -28 -26 -52 -45 -53 -44 -2 2 3 40 10 83 10 59 11 83 3 93 -6 7 -15 13
-18 13 -4 0 -36 -32 -72 -71z"/>
<path d="M2683 874 c-4 -10 13 -34 51 -73 31 -31 56 -61 56 -66 0 -5 -10 -19
-22 -32 -16 -17 -19 -26 -11 -34 9 -9 29 4 77 46 36 32 66 64 66 71 0 23 -17
24 -46 2 l-27 -22 -57 62 c-59 64 -76 73 -87 46z"/>
<path d="M1352 618 c-21 -21 -14 -66 13 -84 30 -19 48 -14 71 20 15 24 15 28
0 51 -18 27 -63 34 -84 13z"/>
<path d="M2436 614 c-22 -21 -20 -50 4 -74 25 -25 41 -25 68 0 24 23 27 41 12
71 -13 23 -62 26 -84 3z"/>
<path d="M1671 587 c-14 -36 -24 -134 -17 -162 7 -29 52 -55 94 -55 51 0 71
27 91 117 10 46 15 85 13 88 -3 3 -13 5 -23 5 -17 0 -21 -9 -35 -95 -11 -69
-52 -95 -88 -56 -16 18 -16 24 -2 92 8 40 13 76 10 81 -10 16 -35 8 -43 -15z"/>
<path d="M2102 592 c-57 -11 -72 -18 -70 -31 2 -11 14 -16 38 -16 l35 0 13
-80 c15 -89 25 -107 47 -84 11 11 13 23 6 49 -5 19 -12 55 -15 80 -6 45 -6 46
26 55 36 11 45 39 13 41 -11 1 -53 -5 -93 -14z"/>
<path d="M1920 465 c0 -98 1 -105 20 -105 19 0 20 7 20 105 0 98 -1 105 -20
105 -19 0 -20 -7 -20 -105z"/>
</g>
</svg>
